<?xml version="1.0" encoding="utf-8"?>
<!-- Generator: Adobe Illustrator 15.1.0, SVG Export Plug-In . SVG Version: 6.00 Build 0)  -->
<!DOCTYPE svg PUBLIC "-//W3C//DTD SVG 1.1//EN" "http://www.w3.org/Graphics/SVG/1.1/DTD/svg11.dtd">
<svg version="1.1" id="Layer_1" xmlns="http://www.w3.org/2000/svg" xmlns:xlink="http://www.w3.org/1999/xlink" x="0px" y="0px"
	 width="30px" height="48px" viewBox="223.166 25.333 30 48" enable-background="new 223.166 25.333 30 48" xml:space="preserve">
<g>
	<g>
		<path d="M224.04,53.135c4.354,5.231,8.71,10.465,13.065,15.696c0.32,0.386,0.697,0.524,1.061,0.499
			c0.363,0.025,0.742-0.113,1.062-0.499c4.354-5.231,8.709-10.465,13.064-15.696c0.807-0.968,0.339-2.562-1.06-2.562
			c-1.828,0-3.655,0-5.482,0c0-7.913,0-15.826,0-23.739c0-0.818-0.683-1.501-1.501-1.501c-4.055,0-8.11,0-12.166,0
			c-0.817,0-1.501,0.683-1.501,1.501c0,7.913,0,15.826,0,23.739c-1.827,0-3.654,0-5.482,0
			C223.703,50.573,223.234,52.167,224.04,53.135z"/>
	</g>
	<g>
		<path fill="#FBFAF7" d="M224.04,57.135c4.354,5.231,8.71,10.465,13.065,15.696c0.32,0.386,0.697,0.524,1.061,0.499
			c0.363,0.025,0.742-0.113,1.062-0.499c4.354-5.231,8.709-10.465,13.064-15.696c0.807-0.968,0.339-2.562-1.06-2.562
			c-1.828,0-3.655,0-5.482,0c0-7.913,0-15.826,0-23.739c0-0.818-0.683-1.501-1.501-1.501c-4.055,0-8.11,0-12.166,0
			c-0.817,0-1.501,0.683-1.501,1.501c0,7.913,0,15.826,0,23.739c-1.827,0-3.654,0-5.482,0
			C223.703,54.573,223.234,56.167,224.04,57.135z"/>
	</g>
</g>
</svg>
