<?xml version="1.0" encoding="utf-8"?>
<!-- Generator: Adobe Illustrator 15.1.0, SVG Export Plug-In . SVG Version: 6.00 Build 0)  -->
<!DOCTYPE svg PUBLIC "-//W3C//DTD SVG 1.1//EN" "http://www.w3.org/Graphics/SVG/1.1/DTD/svg11.dtd">
<svg version="1.1" id="Layer_1" xmlns="http://www.w3.org/2000/svg" xmlns:xlink="http://www.w3.org/1999/xlink" x="0px" y="0px"
	 width="45px" height="56px" viewBox="0 0 45 56" enable-background="new 0 0 45 56" xml:space="preserve">
<g>
	<g>
		<path d="M44.692,19.048c0-4.759-1.582-8.192-3.957-10.65c1.561-3.911-0.532-8.319-0.532-8.319s-3.746-0.526-8.873,3.322
			c-2.817-0.69-5.589-0.914-7.759-0.914c-2.22,0-5.399,0.254-8.638,1.121C9.661-0.469,5.775,0.079,5.775,0.079
			s-2.272,4.795-0.31,8.817c-2.192,2.384-3.635,5.625-3.635,10.006c0,11.604,7.685,15.075,16.465,15.901
			c-1.48,0.743-2.452,1.994-2.885,3.982c-0.471,0.39-1.623,1.033-4.149,1.033c-3.635,0-5.437-4.067-6.229-4.86
			c-1.077-1.077-2.229-1.455-3.474-1.505c-0.576-0.021-0.997,0.161-1.124,0.285c-0.315,0.315-0.012,0.923,0.567,1.183
			c0.644,0.294,1.421,0.845,2.34,2.09c0.997,1.35,1.369,3.278,3.022,4.932c1.406,1.406,3.242,2.05,5.545,2.05
			c1.483,0,2.623-0.297,3.245-0.508c0.009,2.378,0.016,5.065-0.108,6.451c0,0,3.26,2.118,8.272,2.118
			c5.013,0,8.991-2.118,8.991-2.118c-0.152-1.745-0.1-5.076-0.1-8.427c0-3.498-0.997-5.511-2.916-6.582
			C37.15,34.482,44.692,32.061,44.692,19.048z"/>
	</g>
	<g>
		<path fill="#FAF9F7" d="M44.692,22.994c0-4.759-1.582-8.192-3.957-10.65c1.561-3.911-0.532-8.319-0.532-8.319
			s-3.746-0.526-8.873,3.322c-2.817-0.69-5.589-0.914-7.759-0.914c-2.22,0-5.399,0.254-8.638,1.121
			C9.661,3.477,5.775,4.024,5.775,4.024s-2.272,4.795-0.31,8.817c-2.192,2.384-3.635,5.625-3.635,10.006
			c0,11.604,7.685,15.075,16.465,15.901c-1.48,0.743-2.452,1.994-2.885,3.982c-0.471,0.39-1.623,1.033-4.149,1.033
			c-3.635,0-5.437-4.067-6.229-4.86c-1.077-1.077-2.229-1.455-3.474-1.505c-0.576-0.021-0.997,0.161-1.124,0.285
			C0.119,38,0.422,38.607,1.001,38.867c0.644,0.294,1.421,0.845,2.34,2.09c0.997,1.35,1.369,3.278,3.022,4.932
			c1.406,1.406,3.242,2.05,5.545,2.05c1.483,0,2.623-0.297,3.245-0.508c0.009,2.378,0.016,5.065-0.108,6.451
			c0,0,3.26,2.118,8.272,2.118c5.013,0,8.991-2.118,8.991-2.118c-0.152-1.745-0.1-5.076-0.1-8.427c0-3.498-0.997-5.511-2.916-6.582
			C37.15,38.428,44.692,36.006,44.692,22.994z"/>
	</g>
</g>
</svg>
